{
	"patcher" : 	{
		"fileversion" : 1,
		"rect" : [ 590.0, 50.0, 1081.0, 708.0 ],
		"bglocked" : 0,
		"defrect" : [ 590.0, 50.0, 1081.0, 708.0 ],
		"openrect" : [ 0.0, 0.0, 0.0, 0.0 ],
		"openinpresentation" : 0,
		"default_fontsize" : 12.0,
		"default_fontface" : 0,
		"default_fontname" : "Arial",
		"gridonopen" : 0,
		"gridsize" : [ 15.0, 15.0 ],
		"gridsnaponopen" : 0,
		"toolbarvisible" : 1,
		"boxanimatetime" : 200,
		"imprint" : 0,
		"boxes" : [ 			{
				"box" : 				{
					"maxclass" : "newobj",
					"varname" : "output2",
					"text" : "dac~ 2",
					"fontname" : "Arial",
					"numinlets" : 1,
					"numoutlets" : 0,
					"fontsize" : 12.0,
					"patching_rect" : [ 422.0, 558.0, 47.0, 20.0 ],
					"id" : "obj-17"
				}

			}
, 			{
				"box" : 				{
					"maxclass" : "newobj",
					"varname" : "output1",
					"text" : "dac~ 1",
					"fontname" : "Arial",
					"numinlets" : 1,
					"numoutlets" : 0,
					"fontsize" : 12.0,
					"patching_rect" : [ 337.0, 558.0, 47.0, 20.0 ],
					"id" : "obj-16"
				}

			}
, 			{
				"box" : 				{
					"maxclass" : "newobj",
					"text" : "p object_creation",
					"fontname" : "Arial",
					"numinlets" : 2,
					"numoutlets" : 1,
					"fontsize" : 12.0,
					"outlettype" : [ "" ],
					"patching_rect" : [ 343.0, 69.0, 102.0, 20.0 ],
					"id" : "obj-34",
					"patcher" : 					{
						"fileversion" : 1,
						"rect" : [ 348.0, 412.0, 1235.0, 646.0 ],
						"bglocked" : 0,
						"defrect" : [ 348.0, 412.0, 1235.0, 646.0 ],
						"openrect" : [ 0.0, 0.0, 0.0, 0.0 ],
						"openinpresentation" : 0,
						"default_fontsize" : 12.0,
						"default_fontface" : 0,
						"default_fontname" : "Arial",
						"gridonopen" : 0,
						"gridsize" : [ 15.0, 15.0 ],
						"gridsnaponopen" : 0,
						"toolbarvisible" : 1,
						"boxanimatetime" : 200,
						"imprint" : 0,
						"boxes" : [ 							{
								"box" : 								{
									"maxclass" : "inlet",
									"numinlets" : 0,
									"numoutlets" : 1,
									"outlettype" : [ "" ],
									"patching_rect" : [ 678.0, 51.0, 25.0, 25.0 ],
									"id" : "obj-4",
									"comment" : ""
								}

							}
, 							{
								"box" : 								{
									"maxclass" : "newobj",
									"text" : "sprintf script delete controller%d",
									"fontname" : "Arial",
									"numinlets" : 1,
									"numoutlets" : 1,
									"fontsize" : 12.0,
									"outlettype" : [ "" ],
									"patching_rect" : [ 634.0, 160.0, 181.0, 20.0 ],
									"id" : "obj-3"
								}

							}
, 							{
								"box" : 								{
									"maxclass" : "newobj",
									"text" : "sprintf script delete effect%d",
									"fontname" : "Arial",
									"numinlets" : 1,
									"numoutlets" : 1,
									"fontsize" : 12.0,
									"outlettype" : [ "" ],
									"patching_rect" : [ 631.0, 134.0, 161.0, 20.0 ],
									"id" : "obj-2"
								}

							}
, 							{
								"box" : 								{
									"maxclass" : "newobj",
									"text" : "sprintf script delete source%d",
									"fontname" : "Arial",
									"numinlets" : 1,
									"numoutlets" : 1,
									"fontsize" : 12.0,
									"outlettype" : [ "" ],
									"patching_rect" : [ 627.0, 106.0, 168.0, 20.0 ],
									"id" : "obj-1"
								}

							}
, 							{
								"box" : 								{
									"maxclass" : "newobj",
									"text" : "sprintf script newobject newobj @text \\\"controller %d\\\" @fixwidth 1 @varname controller%d",
									"fontname" : "Arial",
									"numinlets" : 2,
									"numoutlets" : 1,
									"fontsize" : 12.0,
									"outlettype" : [ "" ],
									"patching_rect" : [ 94.0, 157.0, 495.0, 20.0 ],
									"id" : "obj-73"
								}

							}
, 							{
								"box" : 								{
									"maxclass" : "newobj",
									"text" : "sprintf script newobject newobj @text \\\"effect %d\\\" @fixwidth 1 @varname effect%d",
									"fontname" : "Arial",
									"numinlets" : 2,
									"numoutlets" : 1,
									"fontsize" : 12.0,
									"outlettype" : [ "" ],
									"patching_rect" : [ 83.0, 127.0, 455.0, 20.0 ],
									"id" : "obj-48"
								}

							}
, 							{
								"box" : 								{
									"maxclass" : "newobj",
									"text" : "sprintf script newobject newobj @text \\\"source %d\\\" @fixwidth 1 @varname source%d",
									"fontname" : "Arial",
									"numinlets" : 2,
									"numoutlets" : 1,
									"fontsize" : 12.0,
									"outlettype" : [ "" ],
									"patching_rect" : [ 50.0, 100.0, 468.0, 20.0 ],
									"id" : "obj-18"
								}

							}
, 							{
								"box" : 								{
									"maxclass" : "inlet",
									"numinlets" : 0,
									"numoutlets" : 1,
									"outlettype" : [ "" ],
									"patching_rect" : [ 70.666656, 40.0, 25.0, 25.0 ],
									"id" : "obj-32",
									"comment" : ""
								}

							}
, 							{
								"box" : 								{
									"maxclass" : "outlet",
									"numinlets" : 1,
									"numoutlets" : 0,
									"patching_rect" : [ 70.666656, 237.0, 25.0, 25.0 ],
									"id" : "obj-33",
									"comment" : ""
								}

							}
 ],
						"lines" : [ 							{
								"patchline" : 								{
									"source" : [ "obj-73", 0 ],
									"destination" : [ "obj-33", 0 ],
									"hidden" : 0,
									"midpoints" : [  ]
								}

							}
, 							{
								"patchline" : 								{
									"source" : [ "obj-48", 0 ],
									"destination" : [ "obj-33", 0 ],
									"hidden" : 0,
									"midpoints" : [  ]
								}

							}
, 							{
								"patchline" : 								{
									"source" : [ "obj-18", 0 ],
									"destination" : [ "obj-33", 0 ],
									"hidden" : 0,
									"midpoints" : [  ]
								}

							}
, 							{
								"patchline" : 								{
									"source" : [ "obj-32", 0 ],
									"destination" : [ "obj-73", 1 ],
									"hidden" : 0,
									"midpoints" : [  ]
								}

							}
, 							{
								"patchline" : 								{
									"source" : [ "obj-32", 0 ],
									"destination" : [ "obj-48", 1 ],
									"hidden" : 0,
									"midpoints" : [  ]
								}

							}
, 							{
								"patchline" : 								{
									"source" : [ "obj-32", 0 ],
									"destination" : [ "obj-18", 1 ],
									"hidden" : 0,
									"midpoints" : [  ]
								}

							}
, 							{
								"patchline" : 								{
									"source" : [ "obj-32", 0 ],
									"destination" : [ "obj-73", 0 ],
									"hidden" : 0,
									"midpoints" : [  ]
								}

							}
, 							{
								"patchline" : 								{
									"source" : [ "obj-32", 0 ],
									"destination" : [ "obj-48", 0 ],
									"hidden" : 0,
									"midpoints" : [  ]
								}

							}
, 							{
								"patchline" : 								{
									"source" : [ "obj-32", 0 ],
									"destination" : [ "obj-18", 0 ],
									"hidden" : 0,
									"midpoints" : [  ]
								}

							}
, 							{
								"patchline" : 								{
									"source" : [ "obj-4", 0 ],
									"destination" : [ "obj-1", 0 ],
									"hidden" : 0,
									"midpoints" : [  ]
								}

							}
, 							{
								"patchline" : 								{
									"source" : [ "obj-1", 0 ],
									"destination" : [ "obj-33", 0 ],
									"hidden" : 0,
									"midpoints" : [  ]
								}

							}
, 							{
								"patchline" : 								{
									"source" : [ "obj-2", 0 ],
									"destination" : [ "obj-33", 0 ],
									"hidden" : 0,
									"midpoints" : [  ]
								}

							}
, 							{
								"patchline" : 								{
									"source" : [ "obj-4", 0 ],
									"destination" : [ "obj-2", 0 ],
									"hidden" : 0,
									"midpoints" : [  ]
								}

							}
, 							{
								"patchline" : 								{
									"source" : [ "obj-3", 0 ],
									"destination" : [ "obj-33", 0 ],
									"hidden" : 0,
									"midpoints" : [  ]
								}

							}
, 							{
								"patchline" : 								{
									"source" : [ "obj-4", 0 ],
									"destination" : [ "obj-3", 0 ],
									"hidden" : 0,
									"midpoints" : [  ]
								}

							}
 ]
					}
,
					"saved_object_attributes" : 					{
						"fontname" : "Arial",
						"default_fontsize" : 12.0,
						"globalpatchername" : "",
						"fontface" : 0,
						"fontsize" : 12.0,
						"default_fontface" : 0,
						"default_fontname" : "Arial"
					}

				}

			}
, 			{
				"box" : 				{
					"maxclass" : "newobj",
					"text" : "p disconnect",
					"fontname" : "Arial",
					"numinlets" : 1,
					"numoutlets" : 1,
					"fontsize" : 12.0,
					"outlettype" : [ "" ],
					"patching_rect" : [ 158.0, 100.5, 78.0, 20.0 ],
					"id" : "obj-23",
					"patcher" : 					{
						"fileversion" : 1,
						"rect" : [ 25.0, 69.0, 640.0, 480.0 ],
						"bglocked" : 0,
						"defrect" : [ 25.0, 69.0, 640.0, 480.0 ],
						"openrect" : [ 0.0, 0.0, 0.0, 0.0 ],
						"openinpresentation" : 0,
						"default_fontsize" : 12.0,
						"default_fontface" : 0,
						"default_fontname" : "Arial",
						"gridonopen" : 0,
						"gridsize" : [ 15.0, 15.0 ],
						"gridsnaponopen" : 0,
						"toolbarvisible" : 1,
						"boxanimatetime" : 200,
						"imprint" : 0,
						"boxes" : [ 							{
								"box" : 								{
									"maxclass" : "newobj",
									"text" : "unpack s i i i s",
									"fontname" : "Arial",
									"numinlets" : 1,
									"numoutlets" : 5,
									"fontsize" : 12.0,
									"outlettype" : [ "", "int", "int", "int", "" ],
									"patching_rect" : [ 242.0, 208.5, 86.0, 20.0 ],
									"id" : "obj-126"
								}

							}
, 							{
								"box" : 								{
									"maxclass" : "newobj",
									"text" : "pack s i i i s",
									"fontname" : "Arial",
									"numinlets" : 5,
									"numoutlets" : 1,
									"fontsize" : 12.0,
									"outlettype" : [ "" ],
									"patching_rect" : [ 242.0, 186.5, 73.0, 20.0 ],
									"id" : "obj-125"
								}

							}
, 							{
								"box" : 								{
									"maxclass" : "newobj",
									"text" : "unpack s i s i i",
									"fontname" : "Arial",
									"numinlets" : 1,
									"numoutlets" : 5,
									"fontsize" : 12.0,
									"outlettype" : [ "", "int", "", "int", "int" ],
									"patching_rect" : [ 242.0, 155.5, 86.0, 20.0 ],
									"id" : "obj-124"
								}

							}
, 							{
								"box" : 								{
									"maxclass" : "newobj",
									"text" : "t 0",
									"fontname" : "Arial",
									"numinlets" : 1,
									"numoutlets" : 1,
									"fontsize" : 12.0,
									"outlettype" : [ "int" ],
									"patching_rect" : [ 523.0, 277.5, 24.0, 20.0 ],
									"id" : "obj-119"
								}

							}
, 							{
								"box" : 								{
									"maxclass" : "newobj",
									"text" : "t 1",
									"fontname" : "Arial",
									"numinlets" : 1,
									"numoutlets" : 1,
									"fontsize" : 12.0,
									"outlettype" : [ "int" ],
									"patching_rect" : [ 475.0, 263.5, 24.0, 20.0 ],
									"id" : "obj-118"
								}

							}
, 							{
								"box" : 								{
									"maxclass" : "gswitch2",
									"numinlets" : 2,
									"numoutlets" : 2,
									"int" : 1,
									"outlettype" : [ "", "" ],
									"patching_rect" : [ 456.0, 296.5, 39.0, 32.0 ],
									"id" : "obj-117"
								}

							}
, 							{
								"box" : 								{
									"maxclass" : "newobj",
									"text" : "select source effect",
									"fontname" : "Arial",
									"numinlets" : 1,
									"numoutlets" : 3,
									"fontsize" : 12.0,
									"outlettype" : [ "bang", "bang", "" ],
									"patching_rect" : [ 475.0, 227.5, 114.0, 20.0 ],
									"id" : "obj-111"
								}

							}
, 							{
								"box" : 								{
									"maxclass" : "newobj",
									"text" : "sprintf script disconnect %s%d 0 %s%d %d",
									"fontname" : "Arial",
									"numinlets" : 5,
									"numoutlets" : 1,
									"fontsize" : 12.0,
									"outlettype" : [ "" ],
									"patching_rect" : [ 292.0, 367.5, 241.0, 20.0 ],
									"id" : "obj-107"
								}

							}
, 							{
								"box" : 								{
									"maxclass" : "newobj",
									"text" : "prepend controller",
									"fontname" : "Arial",
									"numinlets" : 1,
									"numoutlets" : 1,
									"fontsize" : 12.0,
									"outlettype" : [ "" ],
									"patching_rect" : [ 242.0, 115.5, 107.0, 20.0 ],
									"id" : "obj-106"
								}

							}
, 							{
								"box" : 								{
									"maxclass" : "newobj",
									"text" : "prepend effect",
									"fontname" : "Arial",
									"numinlets" : 1,
									"numoutlets" : 1,
									"fontsize" : 12.0,
									"outlettype" : [ "" ],
									"patching_rect" : [ 146.0, 115.5, 87.0, 20.0 ],
									"id" : "obj-103"
								}

							}
, 							{
								"box" : 								{
									"maxclass" : "newobj",
									"text" : "prepend source",
									"fontname" : "Arial",
									"numinlets" : 1,
									"numoutlets" : 1,
									"fontsize" : 12.0,
									"outlettype" : [ "" ],
									"patching_rect" : [ 50.0, 115.5, 94.0, 20.0 ],
									"id" : "obj-102"
								}

							}
, 							{
								"box" : 								{
									"maxclass" : "newobj",
									"text" : "route source effect controller",
									"fontname" : "Arial",
									"numinlets" : 1,
									"numoutlets" : 4,
									"fontsize" : 12.0,
									"outlettype" : [ "", "", "", "" ],
									"patching_rect" : [ 50.0, 80.5, 307.0, 20.0 ],
									"id" : "obj-99"
								}

							}
, 							{
								"box" : 								{
									"maxclass" : "newobj",
									"text" : "- 1",
									"fontname" : "Arial",
									"numinlets" : 2,
									"numoutlets" : 1,
									"fontsize" : 12.0,
									"outlettype" : [ "int" ],
									"patching_rect" : [ 514.0, 327.5, 32.5, 20.0 ],
									"id" : "obj-92"
								}

							}
, 							{
								"box" : 								{
									"maxclass" : "newobj",
									"text" : "unpack s i s i",
									"fontname" : "Arial",
									"numinlets" : 1,
									"numoutlets" : 4,
									"fontsize" : 12.0,
									"outlettype" : [ "", "int", "", "int" ],
									"patching_rect" : [ 50.0, 184.5, 80.0, 20.0 ],
									"id" : "obj-16"
								}

							}
, 							{
								"box" : 								{
									"maxclass" : "newobj",
									"text" : "sprintf script disconnect %s%d 0 %s%d 0",
									"fontname" : "Arial",
									"numinlets" : 4,
									"numoutlets" : 1,
									"fontsize" : 12.0,
									"outlettype" : [ "" ],
									"patching_rect" : [ 50.0, 367.5, 231.0, 20.0 ],
									"id" : "obj-9"
								}

							}
, 							{
								"box" : 								{
									"maxclass" : "inlet",
									"numinlets" : 0,
									"numoutlets" : 1,
									"outlettype" : [ "" ],
									"patching_rect" : [ 50.0, 45.0, 25.0, 25.0 ],
									"id" : "obj-19",
									"comment" : ""
								}

							}
, 							{
								"box" : 								{
									"maxclass" : "outlet",
									"numinlets" : 1,
									"numoutlets" : 0,
									"patching_rect" : [ 49.5, 402.5, 25.0, 25.0 ],
									"id" : "obj-20",
									"comment" : ""
								}

							}
 ],
						"lines" : [ 							{
								"patchline" : 								{
									"source" : [ "obj-126", 3 ],
									"destination" : [ "obj-107", 3 ],
									"hidden" : 0,
									"midpoints" : [  ]
								}

							}
, 							{
								"patchline" : 								{
									"source" : [ "obj-126", 4 ],
									"destination" : [ "obj-107", 2 ],
									"hidden" : 0,
									"midpoints" : [  ]
								}

							}
, 							{
								"patchline" : 								{
									"source" : [ "obj-126", 1 ],
									"destination" : [ "obj-107", 1 ],
									"hidden" : 0,
									"midpoints" : [  ]
								}

							}
, 							{
								"patchline" : 								{
									"source" : [ "obj-126", 0 ],
									"destination" : [ "obj-107", 0 ],
									"hidden" : 0,
									"midpoints" : [  ]
								}

							}
, 							{
								"patchline" : 								{
									"source" : [ "obj-117", 0 ],
									"destination" : [ "obj-107", 4 ],
									"hidden" : 0,
									"midpoints" : [  ]
								}

							}
, 							{
								"patchline" : 								{
									"source" : [ "obj-92", 0 ],
									"destination" : [ "obj-107", 4 ],
									"hidden" : 0,
									"midpoints" : [  ]
								}

							}
, 							{
								"patchline" : 								{
									"source" : [ "obj-107", 0 ],
									"destination" : [ "obj-20", 0 ],
									"hidden" : 0,
									"midpoints" : [  ]
								}

							}
, 							{
								"patchline" : 								{
									"source" : [ "obj-16", 3 ],
									"destination" : [ "obj-9", 3 ],
									"hidden" : 0,
									"midpoints" : [  ]
								}

							}
, 							{
								"patchline" : 								{
									"source" : [ "obj-16", 0 ],
									"destination" : [ "obj-9", 0 ],
									"hidden" : 0,
									"midpoints" : [  ]
								}

							}
, 							{
								"patchline" : 								{
									"source" : [ "obj-16", 1 ],
									"destination" : [ "obj-9", 1 ],
									"hidden" : 0,
									"midpoints" : [  ]
								}

							}
, 							{
								"patchline" : 								{
									"source" : [ "obj-16", 2 ],
									"destination" : [ "obj-9", 2 ],
									"hidden" : 0,
									"midpoints" : [  ]
								}

							}
, 							{
								"patchline" : 								{
									"source" : [ "obj-9", 0 ],
									"destination" : [ "obj-20", 0 ],
									"hidden" : 0,
									"midpoints" : [  ]
								}

							}
, 							{
								"patchline" : 								{
									"source" : [ "obj-19", 0 ],
									"destination" : [ "obj-99", 0 ],
									"hidden" : 0,
									"midpoints" : [  ]
								}

							}
, 							{
								"patchline" : 								{
									"source" : [ "obj-102", 0 ],
									"destination" : [ "obj-16", 0 ],
									"hidden" : 0,
									"midpoints" : [  ]
								}

							}
, 							{
								"patchline" : 								{
									"source" : [ "obj-103", 0 ],
									"destination" : [ "obj-16", 0 ],
									"hidden" : 0,
									"midpoints" : [  ]
								}

							}
, 							{
								"patchline" : 								{
									"source" : [ "obj-99", 1 ],
									"destination" : [ "obj-103", 0 ],
									"hidden" : 0,
									"midpoints" : [  ]
								}

							}
, 							{
								"patchline" : 								{
									"source" : [ "obj-99", 0 ],
									"destination" : [ "obj-102", 0 ],
									"hidden" : 0,
									"midpoints" : [  ]
								}

							}
, 							{
								"patchline" : 								{
									"source" : [ "obj-99", 2 ],
									"destination" : [ "obj-106", 0 ],
									"hidden" : 0,
									"midpoints" : [  ]
								}

							}
, 							{
								"patchline" : 								{
									"source" : [ "obj-117", 1 ],
									"destination" : [ "obj-92", 0 ],
									"hidden" : 0,
									"midpoints" : [  ]
								}

							}
, 							{
								"patchline" : 								{
									"source" : [ "obj-118", 0 ],
									"destination" : [ "obj-117", 0 ],
									"hidden" : 0,
									"midpoints" : [  ]
								}

							}
, 							{
								"patchline" : 								{
									"source" : [ "obj-111", 0 ],
									"destination" : [ "obj-118", 0 ],
									"hidden" : 0,
									"midpoints" : [  ]
								}

							}
, 							{
								"patchline" : 								{
									"source" : [ "obj-119", 0 ],
									"destination" : [ "obj-117", 0 ],
									"hidden" : 0,
									"midpoints" : [  ]
								}

							}
, 							{
								"patchline" : 								{
									"source" : [ "obj-111", 1 ],
									"destination" : [ "obj-119", 0 ],
									"hidden" : 0,
									"midpoints" : [  ]
								}

							}
, 							{
								"patchline" : 								{
									"source" : [ "obj-106", 0 ],
									"destination" : [ "obj-124", 0 ],
									"hidden" : 0,
									"midpoints" : [  ]
								}

							}
, 							{
								"patchline" : 								{
									"source" : [ "obj-124", 1 ],
									"destination" : [ "obj-125", 1 ],
									"hidden" : 0,
									"midpoints" : [  ]
								}

							}
, 							{
								"patchline" : 								{
									"source" : [ "obj-124", 0 ],
									"destination" : [ "obj-125", 0 ],
									"hidden" : 0,
									"midpoints" : [  ]
								}

							}
, 							{
								"patchline" : 								{
									"source" : [ "obj-124", 3 ],
									"destination" : [ "obj-125", 3 ],
									"hidden" : 0,
									"midpoints" : [  ]
								}

							}
, 							{
								"patchline" : 								{
									"source" : [ "obj-124", 2 ],
									"destination" : [ "obj-125", 4 ],
									"hidden" : 0,
									"midpoints" : [  ]
								}

							}
, 							{
								"patchline" : 								{
									"source" : [ "obj-124", 4 ],
									"destination" : [ "obj-125", 2 ],
									"hidden" : 0,
									"midpoints" : [  ]
								}

							}
, 							{
								"patchline" : 								{
									"source" : [ "obj-125", 0 ],
									"destination" : [ "obj-126", 0 ],
									"hidden" : 0,
									"midpoints" : [  ]
								}

							}
, 							{
								"patchline" : 								{
									"source" : [ "obj-126", 4 ],
									"destination" : [ "obj-111", 0 ],
									"hidden" : 0,
									"midpoints" : [  ]
								}

							}
, 							{
								"patchline" : 								{
									"source" : [ "obj-126", 2 ],
									"destination" : [ "obj-117", 1 ],
									"hidden" : 0,
									"midpoints" : [  ]
								}

							}
, 							{
								"patchline" : 								{
									"source" : [ "obj-124", 2 ],
									"destination" : [ "obj-125", 1 ],
									"hidden" : 0,
									"midpoints" : [  ]
								}

							}
 ]
					}
,
					"saved_object_attributes" : 					{
						"fontname" : "Arial",
						"default_fontsize" : 12.0,
						"globalpatchername" : "",
						"fontface" : 0,
						"fontsize" : 12.0,
						"default_fontface" : 0,
						"default_fontname" : "Arial"
					}

				}

			}
, 			{
				"box" : 				{
					"maxclass" : "newobj",
					"text" : "p connect",
					"fontname" : "Arial",
					"numinlets" : 1,
					"numoutlets" : 1,
					"fontsize" : 12.0,
					"outlettype" : [ "" ],
					"patching_rect" : [ 92.0, 100.5, 63.0, 20.0 ],
					"id" : "obj-21",
					"patcher" : 					{
						"fileversion" : 1,
						"rect" : [ 235.0, 257.0, 640.0, 480.0 ],
						"bglocked" : 0,
						"defrect" : [ 235.0, 257.0, 640.0, 480.0 ],
						"openrect" : [ 0.0, 0.0, 0.0, 0.0 ],
						"openinpresentation" : 0,
						"default_fontsize" : 12.0,
						"default_fontface" : 0,
						"default_fontname" : "Arial",
						"gridonopen" : 0,
						"gridsize" : [ 15.0, 15.0 ],
						"gridsnaponopen" : 0,
						"toolbarvisible" : 1,
						"boxanimatetime" : 200,
						"imprint" : 0,
						"boxes" : [ 							{
								"box" : 								{
									"maxclass" : "newobj",
									"text" : "unpack s i i i s",
									"fontname" : "Arial",
									"numinlets" : 1,
									"numoutlets" : 5,
									"fontsize" : 12.0,
									"outlettype" : [ "", "int", "int", "int", "" ],
									"patching_rect" : [ 242.0, 208.5, 86.0, 20.0 ],
									"id" : "obj-126"
								}

							}
, 							{
								"box" : 								{
									"maxclass" : "newobj",
									"text" : "pack s i i i s",
									"fontname" : "Arial",
									"numinlets" : 5,
									"numoutlets" : 1,
									"fontsize" : 12.0,
									"outlettype" : [ "" ],
									"patching_rect" : [ 242.0, 186.5, 73.0, 20.0 ],
									"id" : "obj-125"
								}

							}
, 							{
								"box" : 								{
									"maxclass" : "newobj",
									"text" : "unpack s i s i i",
									"fontname" : "Arial",
									"numinlets" : 1,
									"numoutlets" : 5,
									"fontsize" : 12.0,
									"outlettype" : [ "", "int", "", "int", "int" ],
									"patching_rect" : [ 242.0, 155.5, 86.0, 20.0 ],
									"id" : "obj-124"
								}

							}
, 							{
								"box" : 								{
									"maxclass" : "newobj",
									"text" : "t 0",
									"fontname" : "Arial",
									"numinlets" : 1,
									"numoutlets" : 1,
									"fontsize" : 12.0,
									"outlettype" : [ "int" ],
									"patching_rect" : [ 523.0, 277.5, 24.0, 20.0 ],
									"id" : "obj-119"
								}

							}
, 							{
								"box" : 								{
									"maxclass" : "newobj",
									"text" : "t 1",
									"fontname" : "Arial",
									"numinlets" : 1,
									"numoutlets" : 1,
									"fontsize" : 12.0,
									"outlettype" : [ "int" ],
									"patching_rect" : [ 475.0, 263.5, 24.0, 20.0 ],
									"id" : "obj-118"
								}

							}
, 							{
								"box" : 								{
									"maxclass" : "gswitch2",
									"numinlets" : 2,
									"numoutlets" : 2,
									"int" : 1,
									"outlettype" : [ "", "" ],
									"patching_rect" : [ 456.0, 296.5, 39.0, 32.0 ],
									"id" : "obj-117"
								}

							}
, 							{
								"box" : 								{
									"maxclass" : "newobj",
									"text" : "select source effect",
									"fontname" : "Arial",
									"numinlets" : 1,
									"numoutlets" : 3,
									"fontsize" : 12.0,
									"outlettype" : [ "bang", "bang", "" ],
									"patching_rect" : [ 475.0, 227.5, 114.0, 20.0 ],
									"id" : "obj-111"
								}

							}
, 							{
								"box" : 								{
									"maxclass" : "newobj",
									"text" : "sprintf script connect %s%d 0 %s%d %d",
									"fontname" : "Arial",
									"numinlets" : 5,
									"numoutlets" : 1,
									"fontsize" : 12.0,
									"outlettype" : [ "" ],
									"patching_rect" : [ 275.0, 367.5, 226.0, 20.0 ],
									"id" : "obj-107"
								}

							}
, 							{
								"box" : 								{
									"maxclass" : "newobj",
									"text" : "prepend controller",
									"fontname" : "Arial",
									"numinlets" : 1,
									"numoutlets" : 1,
									"fontsize" : 12.0,
									"outlettype" : [ "" ],
									"patching_rect" : [ 242.0, 115.5, 107.0, 20.0 ],
									"id" : "obj-106"
								}

							}
, 							{
								"box" : 								{
									"maxclass" : "newobj",
									"text" : "prepend effect",
									"fontname" : "Arial",
									"numinlets" : 1,
									"numoutlets" : 1,
									"fontsize" : 12.0,
									"outlettype" : [ "" ],
									"patching_rect" : [ 146.0, 115.5, 87.0, 20.0 ],
									"id" : "obj-103"
								}

							}
, 							{
								"box" : 								{
									"maxclass" : "newobj",
									"text" : "prepend source",
									"fontname" : "Arial",
									"numinlets" : 1,
									"numoutlets" : 1,
									"fontsize" : 12.0,
									"outlettype" : [ "" ],
									"patching_rect" : [ 50.0, 115.5, 94.0, 20.0 ],
									"id" : "obj-102"
								}

							}
, 							{
								"box" : 								{
									"maxclass" : "newobj",
									"text" : "route source effect controller",
									"fontname" : "Arial",
									"numinlets" : 1,
									"numoutlets" : 4,
									"fontsize" : 12.0,
									"outlettype" : [ "", "", "", "" ],
									"patching_rect" : [ 50.0, 80.5, 307.0, 20.0 ],
									"id" : "obj-99"
								}

							}
, 							{
								"box" : 								{
									"maxclass" : "newobj",
									"text" : "- 1",
									"fontname" : "Arial",
									"numinlets" : 2,
									"numoutlets" : 1,
									"fontsize" : 12.0,
									"outlettype" : [ "int" ],
									"patching_rect" : [ 504.0, 327.5, 32.5, 20.0 ],
									"id" : "obj-92"
								}

							}
, 							{
								"box" : 								{
									"maxclass" : "newobj",
									"text" : "unpack s i s i",
									"fontname" : "Arial",
									"numinlets" : 1,
									"numoutlets" : 4,
									"fontsize" : 12.0,
									"outlettype" : [ "", "int", "", "int" ],
									"patching_rect" : [ 50.0, 184.5, 80.0, 20.0 ],
									"id" : "obj-16"
								}

							}
, 							{
								"box" : 								{
									"maxclass" : "newobj",
									"text" : "sprintf script connect %s%d 0 %s%d 0",
									"fontname" : "Arial",
									"numinlets" : 4,
									"numoutlets" : 1,
									"fontsize" : 12.0,
									"outlettype" : [ "" ],
									"patching_rect" : [ 50.0, 367.5, 215.0, 20.0 ],
									"id" : "obj-9"
								}

							}
, 							{
								"box" : 								{
									"maxclass" : "inlet",
									"numinlets" : 0,
									"numoutlets" : 1,
									"outlettype" : [ "" ],
									"patching_rect" : [ 50.0, 45.0, 25.0, 25.0 ],
									"id" : "obj-19",
									"comment" : ""
								}

							}
, 							{
								"box" : 								{
									"maxclass" : "outlet",
									"numinlets" : 1,
									"numoutlets" : 0,
									"patching_rect" : [ 49.5, 402.5, 25.0, 25.0 ],
									"id" : "obj-20",
									"comment" : ""
								}

							}
 ],
						"lines" : [ 							{
								"patchline" : 								{
									"source" : [ "obj-124", 2 ],
									"destination" : [ "obj-125", 1 ],
									"hidden" : 0,
									"midpoints" : [  ]
								}

							}
, 							{
								"patchline" : 								{
									"source" : [ "obj-126", 3 ],
									"destination" : [ "obj-107", 3 ],
									"hidden" : 0,
									"midpoints" : [  ]
								}

							}
, 							{
								"patchline" : 								{
									"source" : [ "obj-126", 4 ],
									"destination" : [ "obj-107", 2 ],
									"hidden" : 0,
									"midpoints" : [  ]
								}

							}
, 							{
								"patchline" : 								{
									"source" : [ "obj-126", 2 ],
									"destination" : [ "obj-117", 1 ],
									"hidden" : 0,
									"midpoints" : [  ]
								}

							}
, 							{
								"patchline" : 								{
									"source" : [ "obj-126", 1 ],
									"destination" : [ "obj-107", 1 ],
									"hidden" : 0,
									"midpoints" : [  ]
								}

							}
, 							{
								"patchline" : 								{
									"source" : [ "obj-126", 0 ],
									"destination" : [ "obj-107", 0 ],
									"hidden" : 0,
									"midpoints" : [  ]
								}

							}
, 							{
								"patchline" : 								{
									"source" : [ "obj-126", 4 ],
									"destination" : [ "obj-111", 0 ],
									"hidden" : 0,
									"midpoints" : [  ]
								}

							}
, 							{
								"patchline" : 								{
									"source" : [ "obj-125", 0 ],
									"destination" : [ "obj-126", 0 ],
									"hidden" : 0,
									"midpoints" : [  ]
								}

							}
, 							{
								"patchline" : 								{
									"source" : [ "obj-124", 4 ],
									"destination" : [ "obj-125", 2 ],
									"hidden" : 0,
									"midpoints" : [  ]
								}

							}
, 							{
								"patchline" : 								{
									"source" : [ "obj-124", 2 ],
									"destination" : [ "obj-125", 4 ],
									"hidden" : 0,
									"midpoints" : [  ]
								}

							}
, 							{
								"patchline" : 								{
									"source" : [ "obj-124", 3 ],
									"destination" : [ "obj-125", 3 ],
									"hidden" : 0,
									"midpoints" : [  ]
								}

							}
, 							{
								"patchline" : 								{
									"source" : [ "obj-124", 0 ],
									"destination" : [ "obj-125", 0 ],
									"hidden" : 0,
									"midpoints" : [  ]
								}

							}
, 							{
								"patchline" : 								{
									"source" : [ "obj-124", 1 ],
									"destination" : [ "obj-125", 1 ],
									"hidden" : 0,
									"midpoints" : [  ]
								}

							}
, 							{
								"patchline" : 								{
									"source" : [ "obj-106", 0 ],
									"destination" : [ "obj-124", 0 ],
									"hidden" : 0,
									"midpoints" : [  ]
								}

							}
, 							{
								"patchline" : 								{
									"source" : [ "obj-111", 1 ],
									"destination" : [ "obj-119", 0 ],
									"hidden" : 0,
									"midpoints" : [  ]
								}

							}
, 							{
								"patchline" : 								{
									"source" : [ "obj-119", 0 ],
									"destination" : [ "obj-117", 0 ],
									"hidden" : 0,
									"midpoints" : [  ]
								}

							}
, 							{
								"patchline" : 								{
									"source" : [ "obj-111", 0 ],
									"destination" : [ "obj-118", 0 ],
									"hidden" : 0,
									"midpoints" : [  ]
								}

							}
, 							{
								"patchline" : 								{
									"source" : [ "obj-118", 0 ],
									"destination" : [ "obj-117", 0 ],
									"hidden" : 0,
									"midpoints" : [  ]
								}

							}
, 							{
								"patchline" : 								{
									"source" : [ "obj-117", 0 ],
									"destination" : [ "obj-107", 4 ],
									"hidden" : 0,
									"midpoints" : [  ]
								}

							}
, 							{
								"patchline" : 								{
									"source" : [ "obj-117", 1 ],
									"destination" : [ "obj-92", 0 ],
									"hidden" : 0,
									"midpoints" : [  ]
								}

							}
, 							{
								"patchline" : 								{
									"source" : [ "obj-92", 0 ],
									"destination" : [ "obj-107", 4 ],
									"hidden" : 0,
									"midpoints" : [  ]
								}

							}
, 							{
								"patchline" : 								{
									"source" : [ "obj-99", 2 ],
									"destination" : [ "obj-106", 0 ],
									"hidden" : 0,
									"midpoints" : [  ]
								}

							}
, 							{
								"patchline" : 								{
									"source" : [ "obj-99", 0 ],
									"destination" : [ "obj-102", 0 ],
									"hidden" : 0,
									"midpoints" : [  ]
								}

							}
, 							{
								"patchline" : 								{
									"source" : [ "obj-99", 1 ],
									"destination" : [ "obj-103", 0 ],
									"hidden" : 0,
									"midpoints" : [  ]
								}

							}
, 							{
								"patchline" : 								{
									"source" : [ "obj-103", 0 ],
									"destination" : [ "obj-16", 0 ],
									"hidden" : 0,
									"midpoints" : [  ]
								}

							}
, 							{
								"patchline" : 								{
									"source" : [ "obj-102", 0 ],
									"destination" : [ "obj-16", 0 ],
									"hidden" : 0,
									"midpoints" : [  ]
								}

							}
, 							{
								"patchline" : 								{
									"source" : [ "obj-16", 3 ],
									"destination" : [ "obj-9", 3 ],
									"hidden" : 0,
									"midpoints" : [  ]
								}

							}
, 							{
								"patchline" : 								{
									"source" : [ "obj-16", 0 ],
									"destination" : [ "obj-9", 0 ],
									"hidden" : 0,
									"midpoints" : [  ]
								}

							}
, 							{
								"patchline" : 								{
									"source" : [ "obj-16", 1 ],
									"destination" : [ "obj-9", 1 ],
									"hidden" : 0,
									"midpoints" : [  ]
								}

							}
, 							{
								"patchline" : 								{
									"source" : [ "obj-16", 2 ],
									"destination" : [ "obj-9", 2 ],
									"hidden" : 0,
									"midpoints" : [  ]
								}

							}
, 							{
								"patchline" : 								{
									"source" : [ "obj-19", 0 ],
									"destination" : [ "obj-99", 0 ],
									"hidden" : 0,
									"midpoints" : [  ]
								}

							}
, 							{
								"patchline" : 								{
									"source" : [ "obj-9", 0 ],
									"destination" : [ "obj-20", 0 ],
									"hidden" : 0,
									"midpoints" : [  ]
								}

							}
, 							{
								"patchline" : 								{
									"source" : [ "obj-107", 0 ],
									"destination" : [ "obj-20", 0 ],
									"hidden" : 0,
									"midpoints" : [  ]
								}

							}
 ]
					}
,
					"saved_object_attributes" : 					{
						"fontname" : "Arial",
						"default_fontsize" : 12.0,
						"globalpatchername" : "",
						"fontface" : 0,
						"fontsize" : 12.0,
						"default_fontface" : 0,
						"default_fontname" : "Arial"
					}

				}

			}
, 			{
				"box" : 				{
					"maxclass" : "ezdac~",
					"numinlets" : 2,
					"numoutlets" : 0,
					"patching_rect" : [ 654.0, 236.0, 45.0, 45.0 ],
					"id" : "obj-127"
				}

			}
, 			{
				"box" : 				{
					"maxclass" : "newobj",
					"text" : "loadbang",
					"fontname" : "Arial",
					"numinlets" : 1,
					"numoutlets" : 1,
					"fontsize" : 12.0,
					"outlettype" : [ "bang" ],
					"patching_rect" : [ 343.0, 19.0, 60.0, 20.0 ],
					"id" : "obj-43"
				}

			}
, 			{
				"box" : 				{
					"maxclass" : "message",
					"text" : "1, 2, 3, 4",
					"fontname" : "Arial",
					"numinlets" : 2,
					"numoutlets" : 1,
					"fontsize" : 12.0,
					"outlettype" : [ "" ],
					"patching_rect" : [ 343.0, 43.0, 57.0, 18.0 ],
					"id" : "obj-42"
				}

			}
, 			{
				"box" : 				{
					"maxclass" : "newobj",
					"text" : "route /connect /disconnect",
					"fontname" : "Arial",
					"numinlets" : 1,
					"numoutlets" : 3,
					"fontsize" : 12.0,
					"outlettype" : [ "", "", "" ],
					"patching_rect" : [ 92.0, 36.0, 151.0, 20.0 ],
					"id" : "obj-13"
				}

			}
, 			{
				"box" : 				{
					"maxclass" : "newobj",
					"text" : "udpreceive 4444",
					"fontname" : "Arial",
					"numinlets" : 1,
					"numoutlets" : 1,
					"fontsize" : 12.0,
					"outlettype" : [ "" ],
					"patching_rect" : [ 92.0, 7.0, 99.0, 20.0 ],
					"id" : "obj-12"
				}

			}
, 			{
				"box" : 				{
					"maxclass" : "newobj",
					"text" : "thispatcher",
					"fontname" : "Arial",
					"numinlets" : 1,
					"numoutlets" : 2,
					"fontsize" : 12.0,
					"outlettype" : [ "", "" ],
					"patching_rect" : [ 406.0, 217.0, 69.0, 20.0 ],
					"id" : "obj-6",
					"save" : [ "#N", "thispatcher", ";", "#Q", "end", ";" ]
				}

			}
, 			{
				"box" : 				{
					"maxclass" : "newobj",
					"varname" : "controller1",
					"text" : "controller 1",
					"fontname" : "Arial",
					"numinlets" : 0,
					"numoutlets" : 1,
					"fontsize" : 12.0,
					"outlettype" : [ "signal" ],
					"patching_rect" : [ 179.0, 294.0, 70.0, 20.0 ],
					"id" : "obj-1"
				}

			}
, 			{
				"box" : 				{
					"maxclass" : "newobj",
					"varname" : "effect1",
					"text" : "effect 1",
					"fontname" : "Arial",
					"numinlets" : 5,
					"numoutlets" : 1,
					"fontsize" : 12.0,
					"outlettype" : [ "signal" ],
					"patching_rect" : [ 322.0, 322.0, 50.0, 20.0 ],
					"id" : "obj-2"
				}

			}
, 			{
				"box" : 				{
					"maxclass" : "newobj",
					"varname" : "source1",
					"text" : "source 1",
					"fontname" : "Arial",
					"numinlets" : 4,
					"numoutlets" : 1,
					"fontsize" : 12.0,
					"outlettype" : [ "signal" ],
					"patching_rect" : [ 189.0, 404.0, 57.0, 20.0 ],
					"id" : "obj-3"
				}

			}
, 			{
				"box" : 				{
					"maxclass" : "newobj",
					"varname" : "controller2",
					"text" : "controller 2",
					"fontname" : "Arial",
					"numinlets" : 0,
					"numoutlets" : 1,
					"fontsize" : 12.0,
					"outlettype" : [ "signal" ],
					"patching_rect" : [ 327.0, 383.0, 70.0, 20.0 ],
					"id" : "obj-4"
				}

			}
, 			{
				"box" : 				{
					"maxclass" : "newobj",
					"varname" : "effect2",
					"text" : "effect 2",
					"fontname" : "Arial",
					"numinlets" : 5,
					"numoutlets" : 1,
					"fontsize" : 12.0,
					"outlettype" : [ "signal" ],
					"patching_rect" : [ 458.0, 336.0, 50.0, 20.0 ],
					"id" : "obj-5"
				}

			}
, 			{
				"box" : 				{
					"maxclass" : "newobj",
					"varname" : "source2",
					"text" : "source 2",
					"fontname" : "Arial",
					"numinlets" : 4,
					"numoutlets" : 1,
					"fontsize" : 12.0,
					"outlettype" : [ "signal" ],
					"patching_rect" : [ 56.0, 306.0, 57.0, 20.0 ],
					"id" : "obj-7"
				}

			}
, 			{
				"box" : 				{
					"maxclass" : "newobj",
					"varname" : "controller3",
					"text" : "controller 3",
					"fontname" : "Arial",
					"numinlets" : 0,
					"numoutlets" : 1,
					"fontsize" : 12.0,
					"outlettype" : [ "signal" ],
					"patching_rect" : [ 601.0, 402.0, 70.0, 20.0 ],
					"id" : "obj-8"
				}

			}
, 			{
				"box" : 				{
					"maxclass" : "newobj",
					"varname" : "effect3",
					"text" : "effect 3",
					"fontname" : "Arial",
					"numinlets" : 5,
					"numoutlets" : 1,
					"fontsize" : 12.0,
					"outlettype" : [ "signal" ],
					"patching_rect" : [ 529.0, 433.0, 50.0, 20.0 ],
					"id" : "obj-9"
				}

			}
, 			{
				"box" : 				{
					"maxclass" : "newobj",
					"varname" : "source3",
					"text" : "source 3",
					"fontname" : "Arial",
					"numinlets" : 4,
					"numoutlets" : 1,
					"fontsize" : 12.0,
					"outlettype" : [ "signal" ],
					"patching_rect" : [ 420.0, 424.0, 57.0, 20.0 ],
					"id" : "obj-10"
				}

			}
, 			{
				"box" : 				{
					"maxclass" : "newobj",
					"varname" : "controller4",
					"text" : "controller 4",
					"fontname" : "Arial",
					"numinlets" : 0,
					"numoutlets" : 1,
					"fontsize" : 12.0,
					"outlettype" : [ "signal" ],
					"patching_rect" : [ 498.0, 483.0, 70.0, 20.0 ],
					"id" : "obj-11"
				}

			}
, 			{
				"box" : 				{
					"maxclass" : "newobj",
					"varname" : "effect4",
					"text" : "effect 4",
					"fontname" : "Arial",
					"numinlets" : 5,
					"numoutlets" : 1,
					"fontsize" : 12.0,
					"outlettype" : [ "signal" ],
					"patching_rect" : [ 290.0, 472.0, 50.0, 20.0 ],
					"id" : "obj-14"
				}

			}
, 			{
				"box" : 				{
					"maxclass" : "newobj",
					"varname" : "source4",
					"text" : "source 4",
					"fontname" : "Arial",
					"numinlets" : 4,
					"numoutlets" : 1,
					"fontsize" : 12.0,
					"outlettype" : [ "signal" ],
					"patching_rect" : [ 392.0, 448.0, 57.0, 20.0 ],
					"id" : "obj-15"
				}

			}
 ],
		"lines" : [ 			{
				"patchline" : 				{
					"source" : [ "obj-42", 0 ],
					"destination" : [ "obj-34", 1 ],
					"hidden" : 0,
					"midpoints" : [  ]
				}

			}
, 			{
				"patchline" : 				{
					"source" : [ "obj-23", 0 ],
					"destination" : [ "obj-6", 0 ],
					"hidden" : 0,
					"midpoints" : [  ]
				}

			}
, 			{
				"patchline" : 				{
					"source" : [ "obj-13", 1 ],
					"destination" : [ "obj-23", 0 ],
					"hidden" : 0,
					"midpoints" : [  ]
				}

			}
, 			{
				"patchline" : 				{
					"source" : [ "obj-12", 0 ],
					"destination" : [ "obj-13", 0 ],
					"hidden" : 0,
					"midpoints" : [  ]
				}

			}
, 			{
				"patchline" : 				{
					"source" : [ "obj-13", 0 ],
					"destination" : [ "obj-21", 0 ],
					"hidden" : 0,
					"midpoints" : [  ]
				}

			}
, 			{
				"patchline" : 				{
					"source" : [ "obj-21", 0 ],
					"destination" : [ "obj-6", 0 ],
					"hidden" : 0,
					"midpoints" : [  ]
				}

			}
, 			{
				"patchline" : 				{
					"source" : [ "obj-43", 0 ],
					"destination" : [ "obj-42", 0 ],
					"hidden" : 0,
					"midpoints" : [  ]
				}

			}
, 			{
				"patchline" : 				{
					"source" : [ "obj-34", 0 ],
					"destination" : [ "obj-6", 0 ],
					"hidden" : 0,
					"midpoints" : [  ]
				}

			}
, 			{
				"patchline" : 				{
					"source" : [ "obj-42", 0 ],
					"destination" : [ "obj-34", 0 ],
					"hidden" : 0,
					"midpoints" : [  ]
				}

			}
 ]
	}

}
